<mxfile host="app.diagrams.net" modified="2023-01-26T13:10:56.417Z" agent="5.0 (X11; Linux x86_64) AppleWebKit/537.36 (KHTML, like Gecko) Chrome/109.0.0.0 Safari/537.36" etag="gsnY2r_5KIg8xidp5t7B" version="20.8.11" type="github">
  <diagram name="Page-1" id="Bveu1aiIexjuHAsP2lZR">
    <mxGraphModel dx="1050" dy="608" grid="1" gridSize="10" guides="1" tooltips="1" connect="1" arrows="1" fold="1" page="1" pageScale="1" pageWidth="827" pageHeight="1169" math="0" shadow="0">
      <root>
        <mxCell id="0" />
        <mxCell id="1" parent="0" />
        <mxCell id="Y0RR1RpAKFuJJlpPLMsz-1" value="branch" style="rounded=0;whiteSpace=wrap;html=1;" vertex="1" parent="1">
          <mxGeometry x="200" y="230" width="120" height="60" as="geometry" />
        </mxCell>
        <mxCell id="Y0RR1RpAKFuJJlpPLMsz-2" value="customer" style="rounded=0;whiteSpace=wrap;html=1;" vertex="1" parent="1">
          <mxGeometry x="440" y="230" width="120" height="60" as="geometry" />
        </mxCell>
        <mxCell id="Y0RR1RpAKFuJJlpPLMsz-3" value="loan" style="rounded=0;whiteSpace=wrap;html=1;" vertex="1" parent="1">
          <mxGeometry x="540" y="400" width="120" height="60" as="geometry" />
        </mxCell>
        <mxCell id="Y0RR1RpAKFuJJlpPLMsz-4" value="borrower" style="rounded=0;whiteSpace=wrap;html=1;" vertex="1" parent="1">
          <mxGeometry x="220" y="410" width="120" height="60" as="geometry" />
        </mxCell>
        <mxCell id="Y0RR1RpAKFuJJlpPLMsz-5" value="assets" style="ellipse;whiteSpace=wrap;html=1;" vertex="1" parent="1">
          <mxGeometry x="40" y="140" width="70" height="30" as="geometry" />
        </mxCell>
        <mxCell id="Y0RR1RpAKFuJJlpPLMsz-7" value="amount" style="ellipse;whiteSpace=wrap;html=1;" vertex="1" parent="1">
          <mxGeometry x="630" y="490" width="70" height="40" as="geometry" />
        </mxCell>
        <mxCell id="Y0RR1RpAKFuJJlpPLMsz-8" value="loan_number" style="ellipse;whiteSpace=wrap;html=1;" vertex="1" parent="1">
          <mxGeometry x="510" y="480" width="80" height="50" as="geometry" />
        </mxCell>
        <mxCell id="Y0RR1RpAKFuJJlpPLMsz-9" value="branch_name" style="ellipse;whiteSpace=wrap;html=1;" vertex="1" parent="1">
          <mxGeometry x="680" y="410" width="130" height="60" as="geometry" />
        </mxCell>
        <mxCell id="Y0RR1RpAKFuJJlpPLMsz-10" value="customer_city" style="ellipse;whiteSpace=wrap;html=1;" vertex="1" parent="1">
          <mxGeometry x="490" y="30" width="110" height="60" as="geometry" />
        </mxCell>
        <mxCell id="Y0RR1RpAKFuJJlpPLMsz-11" value="customer_name" style="ellipse;whiteSpace=wrap;html=1;" vertex="1" parent="1">
          <mxGeometry x="560" y="110" width="110" height="60" as="geometry" />
        </mxCell>
        <mxCell id="Y0RR1RpAKFuJJlpPLMsz-12" value="branch_city" style="ellipse;whiteSpace=wrap;html=1;" vertex="1" parent="1">
          <mxGeometry x="210" y="150" width="70" height="40" as="geometry" />
        </mxCell>
        <mxCell id="Y0RR1RpAKFuJJlpPLMsz-14" value="" style="endArrow=none;html=1;rounded=0;entryX=0.5;entryY=1;entryDx=0;entryDy=0;exitX=1;exitY=0.5;exitDx=0;exitDy=0;" edge="1" parent="1" source="Y0RR1RpAKFuJJlpPLMsz-18" target="Y0RR1RpAKFuJJlpPLMsz-1">
          <mxGeometry width="50" height="50" relative="1" as="geometry">
            <mxPoint x="140" y="365" as="sourcePoint" />
            <mxPoint x="380" y="290" as="targetPoint" />
          </mxGeometry>
        </mxCell>
        <mxCell id="Y0RR1RpAKFuJJlpPLMsz-15" value="loan_number" style="ellipse;whiteSpace=wrap;html=1;" vertex="1" parent="1">
          <mxGeometry x="310" y="520" width="80" height="50" as="geometry" />
        </mxCell>
        <mxCell id="Y0RR1RpAKFuJJlpPLMsz-16" value="customer_name" style="ellipse;whiteSpace=wrap;html=1;" vertex="1" parent="1">
          <mxGeometry x="110" y="480" width="110" height="60" as="geometry" />
        </mxCell>
        <mxCell id="Y0RR1RpAKFuJJlpPLMsz-17" value="branch_name" style="ellipse;whiteSpace=wrap;html=1;" vertex="1" parent="1">
          <mxGeometry x="610" y="220" width="130" height="60" as="geometry" />
        </mxCell>
        <mxCell id="Y0RR1RpAKFuJJlpPLMsz-18" value="branch_name" style="ellipse;whiteSpace=wrap;html=1;" vertex="1" parent="1">
          <mxGeometry x="20" y="260" width="130" height="60" as="geometry" />
        </mxCell>
        <mxCell id="Y0RR1RpAKFuJJlpPLMsz-19" value="" style="endArrow=none;html=1;rounded=0;exitX=0;exitY=1;exitDx=0;exitDy=0;entryX=1;entryY=0.5;entryDx=0;entryDy=0;" edge="1" parent="1" source="Y0RR1RpAKFuJJlpPLMsz-17" target="Y0RR1RpAKFuJJlpPLMsz-2">
          <mxGeometry width="50" height="50" relative="1" as="geometry">
            <mxPoint x="390" y="340" as="sourcePoint" />
            <mxPoint x="440" y="290" as="targetPoint" />
          </mxGeometry>
        </mxCell>
        <mxCell id="Y0RR1RpAKFuJJlpPLMsz-20" value="" style="endArrow=none;html=1;rounded=0;exitX=0.5;exitY=1;exitDx=0;exitDy=0;entryX=0.5;entryY=0;entryDx=0;entryDy=0;" edge="1" parent="1" source="Y0RR1RpAKFuJJlpPLMsz-11" target="Y0RR1RpAKFuJJlpPLMsz-2">
          <mxGeometry width="50" height="50" relative="1" as="geometry">
            <mxPoint x="390" y="340" as="sourcePoint" />
            <mxPoint x="440" y="290" as="targetPoint" />
          </mxGeometry>
        </mxCell>
        <mxCell id="Y0RR1RpAKFuJJlpPLMsz-21" value="" style="endArrow=none;html=1;rounded=0;entryX=0.5;entryY=1;entryDx=0;entryDy=0;exitX=0;exitY=0;exitDx=0;exitDy=0;" edge="1" parent="1" source="Y0RR1RpAKFuJJlpPLMsz-2" target="Y0RR1RpAKFuJJlpPLMsz-10">
          <mxGeometry width="50" height="50" relative="1" as="geometry">
            <mxPoint x="390" y="340" as="sourcePoint" />
            <mxPoint x="440" y="290" as="targetPoint" />
          </mxGeometry>
        </mxCell>
        <mxCell id="Y0RR1RpAKFuJJlpPLMsz-23" value="" style="endArrow=none;html=1;rounded=0;entryX=1;entryY=0;entryDx=0;entryDy=0;exitX=0.5;exitY=1;exitDx=0;exitDy=0;" edge="1" parent="1" source="Y0RR1RpAKFuJJlpPLMsz-12" target="Y0RR1RpAKFuJJlpPLMsz-1">
          <mxGeometry width="50" height="50" relative="1" as="geometry">
            <mxPoint x="260" y="200" as="sourcePoint" />
            <mxPoint x="440" y="290" as="targetPoint" />
          </mxGeometry>
        </mxCell>
        <mxCell id="Y0RR1RpAKFuJJlpPLMsz-24" value="" style="endArrow=none;html=1;rounded=0;entryX=0;entryY=0;entryDx=0;entryDy=0;exitX=1;exitY=0.5;exitDx=0;exitDy=0;" edge="1" parent="1" source="Y0RR1RpAKFuJJlpPLMsz-5" target="Y0RR1RpAKFuJJlpPLMsz-1">
          <mxGeometry width="50" height="50" relative="1" as="geometry">
            <mxPoint x="390" y="340" as="sourcePoint" />
            <mxPoint x="440" y="290" as="targetPoint" />
          </mxGeometry>
        </mxCell>
        <mxCell id="Y0RR1RpAKFuJJlpPLMsz-25" value="" style="endArrow=none;html=1;rounded=0;exitX=1;exitY=0.5;exitDx=0;exitDy=0;entryX=1;entryY=0;entryDx=0;entryDy=0;" edge="1" parent="1" source="Y0RR1RpAKFuJJlpPLMsz-4" target="Y0RR1RpAKFuJJlpPLMsz-15">
          <mxGeometry width="50" height="50" relative="1" as="geometry">
            <mxPoint x="390" y="340" as="sourcePoint" />
            <mxPoint x="440" y="290" as="targetPoint" />
          </mxGeometry>
        </mxCell>
        <mxCell id="Y0RR1RpAKFuJJlpPLMsz-26" value="" style="endArrow=none;html=1;rounded=0;entryX=0;entryY=0;entryDx=0;entryDy=0;exitX=0.5;exitY=0;exitDx=0;exitDy=0;" edge="1" parent="1" source="Y0RR1RpAKFuJJlpPLMsz-16" target="Y0RR1RpAKFuJJlpPLMsz-4">
          <mxGeometry width="50" height="50" relative="1" as="geometry">
            <mxPoint x="390" y="340" as="sourcePoint" />
            <mxPoint x="440" y="290" as="targetPoint" />
          </mxGeometry>
        </mxCell>
        <mxCell id="Y0RR1RpAKFuJJlpPLMsz-27" value="" style="endArrow=none;html=1;rounded=0;entryX=0;entryY=0.5;entryDx=0;entryDy=0;exitX=0;exitY=0;exitDx=0;exitDy=0;" edge="1" parent="1" source="Y0RR1RpAKFuJJlpPLMsz-8" target="Y0RR1RpAKFuJJlpPLMsz-3">
          <mxGeometry width="50" height="50" relative="1" as="geometry">
            <mxPoint x="390" y="340" as="sourcePoint" />
            <mxPoint x="440" y="290" as="targetPoint" />
          </mxGeometry>
        </mxCell>
        <mxCell id="Y0RR1RpAKFuJJlpPLMsz-28" value="" style="endArrow=none;html=1;rounded=0;entryX=0.5;entryY=0;entryDx=0;entryDy=0;exitX=1;exitY=0;exitDx=0;exitDy=0;" edge="1" parent="1" source="Y0RR1RpAKFuJJlpPLMsz-3" target="Y0RR1RpAKFuJJlpPLMsz-9">
          <mxGeometry width="50" height="50" relative="1" as="geometry">
            <mxPoint x="390" y="340" as="sourcePoint" />
            <mxPoint x="440" y="290" as="targetPoint" />
          </mxGeometry>
        </mxCell>
        <mxCell id="Y0RR1RpAKFuJJlpPLMsz-29" value="" style="endArrow=none;html=1;rounded=0;entryX=0;entryY=0;entryDx=0;entryDy=0;exitX=1;exitY=1;exitDx=0;exitDy=0;" edge="1" parent="1" source="Y0RR1RpAKFuJJlpPLMsz-3" target="Y0RR1RpAKFuJJlpPLMsz-7">
          <mxGeometry width="50" height="50" relative="1" as="geometry">
            <mxPoint x="390" y="340" as="sourcePoint" />
            <mxPoint x="440" y="290" as="targetPoint" />
          </mxGeometry>
        </mxCell>
      </root>
    </mxGraphModel>
  </diagram>
</mxfile>
